<svg viewBox="0 0 48 48" xmlns="http://www.w3.org/2000/svg"><path d="m37.25 15.12-4.37-4.37a4.86 4.86 0 0 0-6.87 0L10.93 25.83a4.89 4.89 0 0 0-1.38 4.1.09.09 0 0 1 0 .05l.63 5.72-.42.42a1.49 1.49 0 1 0 2.11 2.11l.44-.44 5.44.6a4.57 4.57 0 0 0 1 .1 4.82 4.82 0 0 0 3.44-1.42L37.25 22a4.86 4.86 0 0 0 0-6.87Zm-2.12 4.76L20.06 35a1.9 1.9 0 0 1-1.33.55 1.84 1.84 0 0 1-.41 0h-.16l-4.61-.51a1.26 1.26 0 0 0-.21-.26 1.18 1.18 0 0 0-.28-.22l-.52-4.66a1.36 1.36 0 0 0 0-.2 1.91 1.91 0 0 1 .46-1.76l15.12-15.08a1.92 1.92 0 0 1 2.65 0l4.36 4.36a1.87 1.87 0 0 1 0 2.65Zm-16.89 9.77a6.78 6.78 0 0 0-2.39-1.56 1 1 0 0 0-.71 1.91 4.91 4.91 0 0 1 1.7 1.11A4.78 4.78 0 0 1 18 32.88a1 1 0 0 0 .94.67 1 1 0 0 0 .32-.06 1 1 0 0 0 .62-1.26 6.67 6.67 0 0 0-1.64-2.58Z" fill="#464646" class="fill-000000"></path></svg>