<svg data-name="Layer 1" viewBox="0 0 32 32" xmlns="http://www.w3.org/2000/svg"><path d="M8 21.92V25H6a1 1 0 0 0 0 2h2v2a1 1 0 0 0 2 0v-2h2a1 1 0 0 0 0-2h-2v-3.08a7 7 0 0 0 3-1.18 7 7 0 0 0 9.6-9.92L28 5.41V9a1 1 0 0 0 2 0V3a1 1 0 0 0-1-1h-6a1 1 0 0 0 0 2h3.59l-5.4 5.4A7 7 0 0 0 13 9.26a7 7 0 1 0-5 12.66ZM13 12a4.91 4.91 0 0 1 0 6 4.91 4.91 0 0 1 0-6Zm7.53-.57a5 5 0 0 1-6 7.84 7 7 0 0 0 0-8.62 4.93 4.93 0 0 1 6 .77ZM9 10a4.94 4.94 0 0 1 2.49.69 7 7 0 0 0 0 8.62A4.94 4.94 0 0 1 9 20a5 5 0 0 1 0-10Z" fill="#33495e" class="fill-000000"></path></svg>