<svg width="218" height="161" viewBox="0 0 218 161" fill="none" xmlns="http://www.w3.org/2000/svg">
<g filter="url(#filter0_d_2_44)">
<mask id="path-1-inside-1_2_44" fill="white">
<path d="M106 -1.52588e-05L3.99998 -1.53497e-05L3.99998 152L106 152L106 -1.52588e-05Z"/>
</mask>
<path d="M106 -1.52588e-05L106 -20L126 -20L126 -1.5241e-05L106 -1.52588e-05ZM106 20L3.99998 20L3.99998 -20L106 -20L106 20ZM86 152L86 -1.52766e-05L126 -1.5241e-05L126 152L86 152Z" fill="#006666" mask="url(#path-1-inside-1_2_44)"/>
</g>
<g filter="url(#filter1_d_2_44)">
<mask id="path-3-inside-2_2_44" fill="white">
<path d="M80 27L3.99998 27L3.99998 153L80 153L80 27Z"/>
</mask>
<path d="M80 27L80 7L100 7L100 27L80 27ZM80 47L3.99998 47L3.99998 7L80 7L80 47ZM60 153L60 27L100 27L100 153L60 153Z" fill="#006666" mask="url(#path-3-inside-2_2_44)"/>
</g>
<g filter="url(#filter2_d_2_44)">
<path d="M7.82702 133.428C7.84835 133.439 7.86937 133.446 7.8907 133.446L19.2188 133.446C21.4307 142.439 28.3807 149 36.6133 149C44.8462 149 51.7962 142.439 54.0047 133.446L160.36 133.446C162.569 142.439 169.519 149 177.751 149C185.984 149 192.934 142.439 195.146 133.446L207.2 133.446C210.289 133.446 212.849 130.577 213.051 126.885L213.793 113.326C213.84 112.429 213.745 111.53 213.511 110.677L210.583 100.026L212.104 90.1144C212.437 87.9469 211.318 85.8407 209.539 85.2763L205.23 83.9116L205.229 83.9112L207.231 74.986L208.909 74.7108C213.398 73.974 216.539 69.0244 215.923 63.6546C215.9 63.4555 215.812 63.2755 215.678 63.1541C215.544 63.0327 215.376 62.9798 215.209 63.007L204.182 64.8166C199.693 65.5535 196.552 70.5031 197.168 75.8729C197.179 75.9715 197.207 76.0664 197.249 76.1523C197.291 76.2382 197.346 76.3134 197.413 76.3735C197.479 76.4337 197.554 76.4776 197.635 76.5028C197.715 76.528 197.799 76.534 197.882 76.5205L202.245 75.8048L200.74 82.5083C165.983 71.8967 130.048 67.8817 94.2495 70.6099C92.2277 70.7654 90.2239 71.1618 88.2679 71.7931C86.3115 72.4275 84.4138 73.2969 82.6036 74.388L55.1247 90.9186C52.6618 92.3985 50.0416 93.4698 47.3366 94.1031L22.0179 100.005C18.0083 100.942 14.444 103.66 12.0422 107.612L7.85779 114.502C6.72078 115.036 5.74462 115.967 5.0565 117.174C4.36838 118.382 4.00022 119.809 4 121.27L4 126.546C3.99988 128.016 4.36308 129.454 5.04396 130.679C5.72485 131.903 6.69307 132.86 7.82702 133.428V133.428ZM198.099 107.033L199.269 103.425C199.34 103.211 199.448 103.017 199.587 102.858C199.726 102.698 199.892 102.577 200.074 102.502L205.188 100.403C205.361 100.332 205.544 100.305 205.726 100.323C205.909 100.341 206.086 100.404 206.247 100.508C206.408 100.612 206.549 100.755 206.661 100.928C206.774 101.1 206.855 101.299 206.9 101.511L208.062 106.975C208.271 107.959 207.663 108.918 206.816 108.947L199.366 109.19C198.422 109.222 197.754 108.09 198.099 107.033V107.033ZM188.317 127.32C188.318 129.464 187.86 131.574 186.985 133.446C185.182 137.326 181.721 139.953 177.751 139.953C173.785 139.953 170.323 137.326 168.517 133.446C167.643 131.574 167.186 129.464 167.188 127.32C167.188 120.35 171.927 114.683 177.751 114.683C183.578 114.683 188.317 120.35 188.317 127.32ZM153.921 78.9404L165.33 80.8874C168.142 81.3644 170.694 83.1114 172.462 85.7693C172.97 86.5327 172.483 87.6547 171.669 87.5895L161.733 86.837C160.108 86.7141 158.525 86.1659 157.097 85.2311C155.669 84.2963 154.429 82.9977 153.467 81.4271L153.031 80.718C152.538 79.9137 153.098 78.799 153.921 78.9404ZM148.554 105.773L145.047 116.916C144.474 118.739 143.573 120.39 142.408 121.751C141.244 123.113 139.843 124.151 138.306 124.794L137.61 125.083C136.823 125.413 136.097 124.446 136.448 123.546L141.34 111.061C142.545 107.986 144.687 105.579 147.328 104.333C148.087 103.975 148.841 104.862 148.554 105.773V105.773ZM58.4886 99.0211L58.5218 98.9992L86.0008 82.4686C88.7201 80.8277 91.6898 79.8649 94.7297 79.6386C101.818 79.0988 108.919 78.8284 116.021 78.8278C121.724 78.8278 127.422 79.0053 133.113 79.3526C135.335 79.4885 137.456 80.5059 139.14 82.2441C143.878 87.1438 148.677 93.0354 148.208 96.408C147.331 102.694 66.9751 103.588 61.3748 103.642C61.1718 103.645 60.9703 103.599 60.7819 103.508L58.6157 102.477C57.3418 101.872 57.2663 99.7557 58.4886 99.0211V99.0211ZM36.613 114.683C42.4375 114.683 47.1758 120.35 47.1758 127.32C47.1775 129.464 46.7191 131.574 45.8443 133.446C44.041 137.326 40.5796 139.953 36.613 139.953C32.6434 139.953 29.182 137.326 27.3759 133.446C26.5021 131.574 26.0447 129.464 26.0475 127.32C26.0475 120.35 30.7855 114.683 36.613 114.683V114.683ZM14.0144 113.807L18.3624 107.322C18.4405 107.207 18.5513 107.13 18.6737 107.105L28.2713 105.147C28.7947 105.039 29.0851 105.842 28.6646 106.226L21.7662 112.497C21.7136 112.547 21.6527 112.582 21.5877 112.602L14.5347 114.773C14.0658 114.918 13.7088 114.26 14.0144 113.807Z" fill="#00e0e0"/>
</g>
<g filter="url(#filter3_d_2_44)">
<mask id="path-6-outside-3_2_44" maskUnits="userSpaceOnUse" x="55.6823" y="-25.6609" width="175.825" height="190.945" fill="black">
<rect fill="white" x="55.6823" y="-25.6609" width="175.825" height="190.945"/>
<path d="M131.669 131.904C138.923 131.988 146.109 130.63 152.816 127.906C159.522 125.182 165.619 121.146 170.757 116.028C175.895 110.911 179.974 104.812 182.761 98.0802C185.548 91.3483 186.988 84.1151 187 76.7937C187.012 69.4723 185.595 62.2059 182.83 55.4095C180.065 48.6132 176.006 42.4199 170.885 37.1832C165.764 31.9466 159.681 27.7692 152.984 24.8895C146.286 22.0099 139.105 20.4844 131.851 20.4001L131.837 28.9437C137.98 29.0151 144.06 30.3068 149.731 32.7452C155.403 35.1835 160.553 38.7208 164.89 43.1549C169.226 47.5891 172.663 52.8333 175.004 58.5882C177.345 64.3431 178.545 70.4959 178.535 76.6954C178.525 82.8948 177.305 89.0196 174.945 94.7198C172.585 100.42 169.131 105.584 164.781 109.918C160.43 114.251 155.268 117.668 149.589 119.975C143.91 122.281 137.826 123.432 131.683 123.36L131.669 131.904Z"/>
</mask>
<path d="M131.669 131.904C138.923 131.988 146.109 130.63 152.816 127.906C159.522 125.182 165.619 121.146 170.757 116.028C175.895 110.911 179.974 104.812 182.761 98.0802C185.548 91.3483 186.988 84.1151 187 76.7937C187.012 69.4723 185.595 62.2059 182.83 55.4095C180.065 48.6132 176.006 42.4199 170.885 37.1832C165.764 31.9466 159.681 27.7692 152.984 24.8895C146.286 22.0099 139.105 20.4844 131.851 20.4001L131.837 28.9437C137.98 29.0151 144.06 30.3068 149.731 32.7452C155.403 35.1835 160.553 38.7208 164.89 43.1549C169.226 47.5891 172.663 52.8333 175.004 58.5882C177.345 64.3431 178.545 70.4959 178.535 76.6954C178.525 82.8948 177.305 89.0196 174.945 94.7198C172.585 100.42 169.131 105.584 164.781 109.918C160.43 114.251 155.268 117.668 149.589 119.975C143.91 122.281 137.826 123.432 131.683 123.36L131.669 131.904Z" stroke="#006666" stroke-width="40" shape-rendering="crispEdges" mask="url(#path-6-outside-3_2_44)"/>
</g>
<defs>
<filter id="filter0_d_2_44" x="-1.52588e-05" y="-1.52588e-05" width="110" height="160" filterUnits="userSpaceOnUse" color-interpolation-filters="sRGB">
<feFlood flood-opacity="0" result="BackgroundImageFix"/>
<feColorMatrix in="SourceAlpha" type="matrix" values="0 0 0 0 0 0 0 0 0 0 0 0 0 0 0 0 0 0 127 0" result="hardAlpha"/>
<feOffset dy="4"/>
<feGaussianBlur stdDeviation="2"/>
<feComposite in2="hardAlpha" operator="out"/>
<feColorMatrix type="matrix" values="0 0 0 0 0 0 0 0 0 0 0 0 0 0 0 0 0 0 0.25 0"/>
<feBlend mode="normal" in2="BackgroundImageFix" result="effect1_dropShadow_2_44"/>
<feBlend mode="normal" in="SourceGraphic" in2="effect1_dropShadow_2_44" result="shape"/>
</filter>
<filter id="filter1_d_2_44" x="-1.52588e-05" y="27" width="84" height="134" filterUnits="userSpaceOnUse" color-interpolation-filters="sRGB">
<feFlood flood-opacity="0" result="BackgroundImageFix"/>
<feColorMatrix in="SourceAlpha" type="matrix" values="0 0 0 0 0 0 0 0 0 0 0 0 0 0 0 0 0 0 127 0" result="hardAlpha"/>
<feOffset dy="4"/>
<feGaussianBlur stdDeviation="2"/>
<feComposite in2="hardAlpha" operator="out"/>
<feColorMatrix type="matrix" values="0 0 0 0 0 0 0 0 0 0 0 0 0 0 0 0 0 0 0.25 0"/>
<feBlend mode="normal" in2="BackgroundImageFix" result="effect1_dropShadow_2_44"/>
<feBlend mode="normal" in="SourceGraphic" in2="effect1_dropShadow_2_44" result="shape"/>
</filter>
<filter id="filter2_d_2_44" x="2" y="63" width="216" height="92" filterUnits="userSpaceOnUse" color-interpolation-filters="sRGB">
<feFlood flood-opacity="0" result="BackgroundImageFix"/>
<feColorMatrix in="SourceAlpha" type="matrix" values="0 0 0 0 0 0 0 0 0 0 0 0 0 0 0 0 0 0 127 0" result="hardAlpha"/>
<feOffset dy="4"/>
<feGaussianBlur stdDeviation="1"/>
<feComposite in2="hardAlpha" operator="out"/>
<feColorMatrix type="matrix" values="0 0 0 0 0 0 0 0 0 0 0 0 0 0 0 0 0 0 0.25 0"/>
<feBlend mode="normal" in2="BackgroundImageFix" result="effect1_dropShadow_2_44"/>
<feBlend mode="normal" in="SourceGraphic" in2="effect1_dropShadow_2_44" result="shape"/>
</filter>
<filter id="filter3_d_2_44" x="107.637" y="0.166809" width="103.364" height="159.741" filterUnits="userSpaceOnUse" color-interpolation-filters="sRGB">
<feFlood flood-opacity="0" result="BackgroundImageFix"/>
<feColorMatrix in="SourceAlpha" type="matrix" values="0 0 0 0 0 0 0 0 0 0 0 0 0 0 0 0 0 0 127 0" result="hardAlpha"/>
<feOffset dy="4"/>
<feGaussianBlur stdDeviation="2"/>
<feComposite in2="hardAlpha" operator="out"/>
<feColorMatrix type="matrix" values="0 0 0 0 0 0 0 0 0 0 0 0 0 0 0 0 0 0 0.25 0"/>
<feBlend mode="normal" in2="BackgroundImageFix" result="effect1_dropShadow_2_44"/>
<feBlend mode="normal" in="SourceGraphic" in2="effect1_dropShadow_2_44" result="shape"/>
</filter>
</defs>
</svg>
