<svg width="211" height="161" viewBox="0 0 211 161" fill="none" xmlns="http://www.w3.org/2000/svg">
<g filter="url(#filter0_d_2_23)">
<mask id="path-1-outside-1_2_23" maskUnits="userSpaceOnUse" x="55.6823" y="-25.6609" width="175.825" height="190.945" fill="black">
<rect fill="white" x="55.6823" y="-25.6609" width="175.825" height="190.945"/>
<path d="M131.669 131.904C138.923 131.988 146.109 130.63 152.816 127.906C159.522 125.182 165.619 121.146 170.757 116.028C175.895 110.911 179.974 104.812 182.761 98.0802C185.548 91.3483 186.988 84.1151 187 76.7937C187.012 69.4723 185.595 62.2059 182.83 55.4095C180.065 48.6132 176.006 42.4199 170.885 37.1832C165.764 31.9466 159.681 27.7692 152.984 24.8895C146.286 22.0099 139.105 20.4844 131.851 20.4001L131.837 28.9437C137.98 29.0151 144.06 30.3068 149.731 32.7452C155.403 35.1835 160.553 38.7208 164.89 43.1549C169.226 47.5891 172.663 52.8333 175.004 58.5882C177.345 64.3431 178.545 70.4959 178.535 76.6954C178.525 82.8948 177.305 89.0196 174.945 94.7198C172.585 100.42 169.131 105.584 164.781 109.918C160.43 114.251 155.268 117.668 149.589 119.975C143.91 122.281 137.826 123.432 131.683 123.36L131.669 131.904Z"/>
</mask>
<path d="M131.669 131.904C138.923 131.988 146.109 130.63 152.816 127.906C159.522 125.182 165.619 121.146 170.757 116.028C175.895 110.911 179.974 104.812 182.761 98.0802C185.548 91.3483 186.988 84.1151 187 76.7937C187.012 69.4723 185.595 62.2059 182.83 55.4095C180.065 48.6132 176.006 42.4199 170.885 37.1832C165.764 31.9466 159.681 27.7692 152.984 24.8895C146.286 22.0099 139.105 20.4844 131.851 20.4001L131.837 28.9437C137.98 29.0151 144.06 30.3068 149.731 32.7452C155.403 35.1835 160.553 38.7208 164.89 43.1549C169.226 47.5891 172.663 52.8333 175.004 58.5882C177.345 64.3431 178.545 70.4959 178.535 76.6954C178.525 82.8948 177.305 89.0196 174.945 94.7198C172.585 100.42 169.131 105.584 164.781 109.918C160.43 114.251 155.268 117.668 149.589 119.975C143.91 122.281 137.826 123.432 131.683 123.36L131.669 131.904Z" stroke="#0E123E" stroke-width="40" shape-rendering="crispEdges" mask="url(#path-1-outside-1_2_23)"/>
</g>
<g filter="url(#filter1_d_2_23)">
<mask id="path-2-inside-2_2_23" fill="white">
<path d="M106 0H4V152H106V0Z"/>
</mask>
<path d="M106 0V-20H126V0H106ZM106 20H4V-20H106V20ZM86 152V0H126V152H86Z" fill="#0E123E" mask="url(#path-2-inside-2_2_23)"/>
</g>
<g filter="url(#filter2_d_2_23)">
<mask id="path-4-inside-3_2_23" fill="white">
<path d="M80 27H4V153H80V27Z"/>
</mask>
<path d="M80 27V7H100V27H80ZM80 47H4V7H80V47ZM60 153V27H100V153H60Z" fill="#0E123E" mask="url(#path-4-inside-3_2_23)"/>
</g>
<defs>
<filter id="filter0_d_2_23" x="107.637" y="0.166809" width="103.364" height="159.741" filterUnits="userSpaceOnUse" color-interpolation-filters="sRGB">
<feFlood flood-opacity="0" result="BackgroundImageFix"/>
<feColorMatrix in="SourceAlpha" type="matrix" values="0 0 0 0 0 0 0 0 0 0 0 0 0 0 0 0 0 0 127 0" result="hardAlpha"/>
<feOffset dy="4"/>
<feGaussianBlur stdDeviation="2"/>
<feComposite in2="hardAlpha" operator="out"/>
<feColorMatrix type="matrix" values="0 0 0 0 0 0 0 0 0 0 0 0 0 0 0 0 0 0 0.25 0"/>
<feBlend mode="normal" in2="BackgroundImageFix" result="effect1_dropShadow_2_23"/>
<feBlend mode="normal" in="SourceGraphic" in2="effect1_dropShadow_2_23" result="shape"/>
</filter>
<filter id="filter1_d_2_23" x="0" y="0" width="110" height="160" filterUnits="userSpaceOnUse" color-interpolation-filters="sRGB">
<feFlood flood-opacity="0" result="BackgroundImageFix"/>
<feColorMatrix in="SourceAlpha" type="matrix" values="0 0 0 0 0 0 0 0 0 0 0 0 0 0 0 0 0 0 127 0" result="hardAlpha"/>
<feOffset dy="4"/>
<feGaussianBlur stdDeviation="2"/>
<feComposite in2="hardAlpha" operator="out"/>
<feColorMatrix type="matrix" values="0 0 0 0 0 0 0 0 0 0 0 0 0 0 0 0 0 0 0.25 0"/>
<feBlend mode="normal" in2="BackgroundImageFix" result="effect1_dropShadow_2_23"/>
<feBlend mode="normal" in="SourceGraphic" in2="effect1_dropShadow_2_23" result="shape"/>
</filter>
<filter id="filter2_d_2_23" x="0" y="27" width="84" height="134" filterUnits="userSpaceOnUse" color-interpolation-filters="sRGB">
<feFlood flood-opacity="0" result="BackgroundImageFix"/>
<feColorMatrix in="SourceAlpha" type="matrix" values="0 0 0 0 0 0 0 0 0 0 0 0 0 0 0 0 0 0 127 0" result="hardAlpha"/>
<feOffset dy="4"/>
<feGaussianBlur stdDeviation="2"/>
<feComposite in2="hardAlpha" operator="out"/>
<feColorMatrix type="matrix" values="0 0 0 0 0 0 0 0 0 0 0 0 0 0 0 0 0 0 0.25 0"/>
<feBlend mode="normal" in2="BackgroundImageFix" result="effect1_dropShadow_2_23"/>
<feBlend mode="normal" in="SourceGraphic" in2="effect1_dropShadow_2_23" result="shape"/>
</filter>
</defs>
</svg>
