<svg width="373" height="161" viewBox="0 0 373 161" fill="none" xmlns="http://www.w3.org/2000/svg">
<g filter="url(#filter0_i_2_23)">
<path d="M3.86312 133.704C3.88465 133.715 3.90587 133.723 3.9274 133.723H15.3624C17.5952 143.134 24.6107 150 32.921 150C41.2316 150 48.2471 143.134 50.4765 133.723H157.835C160.065 143.134 167.08 150 175.39 150C183.701 150 190.716 143.134 192.949 133.723H205.117C208.235 133.723 210.819 130.72 211.024 126.857L211.772 112.666C211.82 111.728 211.724 110.788 211.488 109.894L208.531 98.7486L210.068 88.3755C210.404 86.1073 209.274 83.9031 207.478 83.3123L203.129 81.8842L203.127 81.8838L205.149 72.5434L206.842 72.2555C211.374 71.4844 214.544 66.3046 213.922 60.685C213.899 60.4767 213.81 60.2883 213.675 60.1612C213.54 60.0342 213.37 59.9788 213.202 60.0073L202.07 61.9011C197.539 62.6722 194.369 67.8521 194.99 73.4716C195.002 73.5748 195.029 73.6742 195.072 73.7641C195.114 73.8539 195.17 73.9326 195.237 73.9955C195.304 74.0585 195.38 74.1044 195.462 74.1308C195.543 74.1572 195.627 74.1635 195.711 74.1493L200.115 73.4003L198.596 80.4156C163.512 69.3105 127.238 65.1087 91.1009 67.9638C89.06 68.1266 87.0373 68.5414 85.0628 69.202C83.088 69.866 81.1724 70.7758 79.3452 71.9176L51.607 89.2172C49.1208 90.7658 46.476 91.887 43.7455 92.5498L18.1878 98.7265C14.1404 99.7065 10.5425 102.551 8.11806 106.687L3.89419 113.898C2.74645 114.456 1.76107 115.431 1.06646 116.694C0.371852 117.957 0.00021984 119.451 2.90661e-08 120.98V126.501C-0.000119189 128.04 0.366501 129.545 1.05381 130.826C1.74112 132.108 2.71848 133.109 3.86312 133.704V133.704ZM195.93 106.081L197.112 102.305C197.182 102.081 197.292 101.878 197.432 101.711C197.572 101.545 197.74 101.418 197.924 101.339L203.086 99.1429C203.26 99.0687 203.446 99.0402 203.63 99.0591C203.814 99.0781 203.992 99.1441 204.155 99.2529C204.317 99.3618 204.46 99.5112 204.573 99.6917C204.687 99.8723 204.769 100.08 204.814 100.302L205.987 106.021C206.198 107.051 205.584 108.054 204.729 108.084L197.209 108.338C196.256 108.372 195.582 107.187 195.93 106.081V106.081ZM186.055 127.311C186.057 129.556 185.594 131.763 184.711 133.723C182.891 137.783 179.397 140.532 175.39 140.532C171.386 140.532 167.892 137.783 166.069 133.723C165.187 131.763 164.725 129.556 164.728 127.311C164.728 120.018 169.511 114.087 175.39 114.087C181.272 114.087 186.055 120.018 186.055 127.311ZM151.335 76.6818L162.852 78.7194C165.691 79.2185 168.267 81.0468 170.051 83.8283C170.565 84.6272 170.072 85.8014 169.251 85.7331L159.221 84.9457C157.581 84.8171 155.983 84.2434 154.541 83.2651C153.099 82.2868 151.848 80.9278 150.877 79.2842L150.437 78.5421C149.939 77.7004 150.504 76.5339 151.335 76.6818ZM145.917 104.763L142.377 116.423C141.799 118.332 140.89 120.059 139.714 121.484C138.538 122.909 137.124 123.996 135.573 124.668L134.87 124.971C134.076 125.316 133.343 124.304 133.697 123.362L138.636 110.296C139.852 107.079 142.015 104.56 144.68 103.256C145.447 102.881 146.207 103.809 145.917 104.763V104.763ZM55.0027 97.6964L55.0362 97.6736L82.7744 80.3741C85.5193 78.6568 88.5171 77.6492 91.5856 77.4125C98.7407 76.8475 105.909 76.5646 113.078 76.564C118.835 76.564 124.586 76.7497 130.331 77.1131C132.574 77.2554 134.715 78.3202 136.415 80.1391C141.198 85.2668 146.042 91.4324 145.568 94.9618C144.683 101.54 63.5692 102.476 57.9161 102.532C57.7111 102.535 57.5077 102.487 57.3176 102.392L55.1309 101.313C53.8451 100.681 53.7688 98.4652 55.0027 97.6964V97.6964ZM32.9207 114.087C38.8001 114.087 43.5831 120.018 43.5831 127.311C43.5848 129.556 43.1221 131.763 42.2391 133.723C40.4187 137.783 36.9246 140.532 32.9207 140.532C28.9136 140.532 25.4195 137.783 23.5964 133.723C22.7144 131.763 22.2527 129.556 22.2555 127.311C22.2555 120.018 27.0382 114.087 32.9207 114.087V114.087ZM10.1088 113.17L14.4979 106.384C14.5768 106.263 14.6885 106.182 14.8122 106.157L24.5003 104.108C25.0287 103.994 25.3217 104.835 24.8973 105.236L17.9338 111.799C17.8807 111.851 17.8193 111.889 17.7536 111.909L10.6341 114.181C10.1608 114.333 9.80036 113.644 10.1088 113.17Z" fill="#7E83C2"/>
</g>
<g filter="url(#filter1_d_2_23)">
<mask id="path-2-outside-1_2_23" maskUnits="userSpaceOnUse" x="217.682" y="-25.6609" width="175.825" height="190.945" fill="black">
<rect fill="white" x="217.682" y="-25.6609" width="175.825" height="190.945"/>
<path d="M293.669 131.904C300.923 131.988 308.109 130.63 314.816 127.906C321.522 125.182 327.619 121.146 332.757 116.028C337.895 110.911 341.974 104.812 344.761 98.0802C347.548 91.3483 348.988 84.1151 349 76.7937C349.012 69.4723 347.595 62.2059 344.83 55.4095C342.065 48.6132 338.006 42.4199 332.885 37.1832C327.764 31.9466 321.681 27.7692 314.984 24.8895C308.286 22.0099 301.105 20.4844 293.851 20.4001L293.837 28.9437C299.98 29.0151 306.06 30.3068 311.731 32.7452C317.403 35.1835 322.553 38.7208 326.89 43.1549C331.226 47.5891 334.663 52.8333 337.004 58.5882C339.345 64.3431 340.545 70.4959 340.535 76.6954C340.525 82.8948 339.305 89.0196 336.945 94.7198C334.585 100.42 331.131 105.584 326.781 109.918C322.43 114.251 317.268 117.668 311.589 119.975C305.91 122.281 299.826 123.432 293.683 123.36L293.669 131.904Z"/>
</mask>
<path d="M293.669 131.904C300.923 131.988 308.109 130.63 314.816 127.906C321.522 125.182 327.619 121.146 332.757 116.028C337.895 110.911 341.974 104.812 344.761 98.0802C347.548 91.3483 348.988 84.1151 349 76.7937C349.012 69.4723 347.595 62.2059 344.83 55.4095C342.065 48.6132 338.006 42.4199 332.885 37.1832C327.764 31.9466 321.681 27.7692 314.984 24.8895C308.286 22.0099 301.105 20.4844 293.851 20.4001L293.837 28.9437C299.98 29.0151 306.06 30.3068 311.731 32.7452C317.403 35.1835 322.553 38.7208 326.89 43.1549C331.226 47.5891 334.663 52.8333 337.004 58.5882C339.345 64.3431 340.545 70.4959 340.535 76.6954C340.525 82.8948 339.305 89.0196 336.945 94.7198C334.585 100.42 331.131 105.584 326.781 109.918C322.43 114.251 317.268 117.668 311.589 119.975C305.91 122.281 299.826 123.432 293.683 123.36L293.669 131.904Z" stroke="#0E123E" stroke-width="40" shape-rendering="crispEdges" mask="url(#path-2-outside-1_2_23)"/>
</g>
<g filter="url(#filter2_d_2_23)">
<mask id="path-3-inside-2_2_23" fill="white">
<path d="M268 0H166V152H268V0Z"/>
</mask>
<path d="M268 0V-20H288V0H268ZM268 20H166V-20H268V20ZM248 152V0H288V152H248Z" fill="#0E123E" mask="url(#path-3-inside-2_2_23)"/>
</g>
<g filter="url(#filter3_d_2_23)">
<mask id="path-5-inside-3_2_23" fill="white">
<path d="M242 27H166V153H242V27Z"/>
</mask>
<path d="M242 27V7H262V27H242ZM242 47H166V7H242V47ZM222 153V27H262V153H222Z" fill="#0E123E" mask="url(#path-5-inside-3_2_23)"/>
</g>
<defs>
<filter id="filter0_i_2_23" x="0" y="60" width="214" height="94" filterUnits="userSpaceOnUse" color-interpolation-filters="sRGB">
<feFlood flood-opacity="0" result="BackgroundImageFix"/>
<feBlend mode="normal" in="SourceGraphic" in2="BackgroundImageFix" result="shape"/>
<feColorMatrix in="SourceAlpha" type="matrix" values="0 0 0 0 0 0 0 0 0 0 0 0 0 0 0 0 0 0 127 0" result="hardAlpha"/>
<feOffset dy="4"/>
<feGaussianBlur stdDeviation="2"/>
<feComposite in2="hardAlpha" operator="arithmetic" k2="-1" k3="1"/>
<feColorMatrix type="matrix" values="0 0 0 0 0 0 0 0 0 0 0 0 0 0 0 0 0 0 0.5 0"/>
<feBlend mode="normal" in2="shape" result="effect1_innerShadow_2_23"/>
</filter>
<filter id="filter1_d_2_23" x="269.637" y="0.166809" width="103.364" height="159.741" filterUnits="userSpaceOnUse" color-interpolation-filters="sRGB">
<feFlood flood-opacity="0" result="BackgroundImageFix"/>
<feColorMatrix in="SourceAlpha" type="matrix" values="0 0 0 0 0 0 0 0 0 0 0 0 0 0 0 0 0 0 127 0" result="hardAlpha"/>
<feOffset dy="4"/>
<feGaussianBlur stdDeviation="2"/>
<feComposite in2="hardAlpha" operator="out"/>
<feColorMatrix type="matrix" values="0 0 0 0 0 0 0 0 0 0 0 0 0 0 0 0 0 0 0.25 0"/>
<feBlend mode="normal" in2="BackgroundImageFix" result="effect1_dropShadow_2_23"/>
<feBlend mode="normal" in="SourceGraphic" in2="effect1_dropShadow_2_23" result="shape"/>
</filter>
<filter id="filter2_d_2_23" x="162" y="0" width="110" height="160" filterUnits="userSpaceOnUse" color-interpolation-filters="sRGB">
<feFlood flood-opacity="0" result="BackgroundImageFix"/>
<feColorMatrix in="SourceAlpha" type="matrix" values="0 0 0 0 0 0 0 0 0 0 0 0 0 0 0 0 0 0 127 0" result="hardAlpha"/>
<feOffset dy="4"/>
<feGaussianBlur stdDeviation="2"/>
<feComposite in2="hardAlpha" operator="out"/>
<feColorMatrix type="matrix" values="0 0 0 0 0 0 0 0 0 0 0 0 0 0 0 0 0 0 0.25 0"/>
<feBlend mode="normal" in2="BackgroundImageFix" result="effect1_dropShadow_2_23"/>
<feBlend mode="normal" in="SourceGraphic" in2="effect1_dropShadow_2_23" result="shape"/>
</filter>
<filter id="filter3_d_2_23" x="162" y="27" width="84" height="134" filterUnits="userSpaceOnUse" color-interpolation-filters="sRGB">
<feFlood flood-opacity="0" result="BackgroundImageFix"/>
<feColorMatrix in="SourceAlpha" type="matrix" values="0 0 0 0 0 0 0 0 0 0 0 0 0 0 0 0 0 0 127 0" result="hardAlpha"/>
<feOffset dy="4"/>
<feGaussianBlur stdDeviation="2"/>
<feComposite in2="hardAlpha" operator="out"/>
<feColorMatrix type="matrix" values="0 0 0 0 0 0 0 0 0 0 0 0 0 0 0 0 0 0 0.25 0"/>
<feBlend mode="normal" in2="BackgroundImageFix" result="effect1_dropShadow_2_23"/>
<feBlend mode="normal" in="SourceGraphic" in2="effect1_dropShadow_2_23" result="shape"/>
</filter>
</defs>
</svg>
