<svg width="314" height="162" viewBox="0 0 314 162" fill="none" xmlns="http://www.w3.org/2000/svg">
<g filter="url(#filter0_i_2_23)">
<path d="M25.271 115.205C25.2971 115.217 25.3229 115.226 25.349 115.226H39.2257C41.9353 125.667 50.4489 133.286 60.5337 133.286C70.6188 133.286 79.1324 125.668 81.8378 115.226H212.121C214.826 125.667 223.34 133.286 233.425 133.286C243.51 133.286 252.024 125.668 254.733 115.226H269.499C273.283 115.226 276.419 111.894 276.667 107.608L277.575 91.8631C277.633 90.8224 277.517 89.7786 277.23 88.7875L273.643 76.4211L275.507 64.9119C275.915 62.3952 274.543 59.9496 272.364 59.2942L267.086 57.7096L267.084 57.7092L269.538 47.3458L271.593 47.0264C277.092 46.1708 280.939 40.4236 280.185 34.1886C280.157 33.9575 280.049 33.7485 279.885 33.6075C279.721 33.4665 279.514 33.405 279.31 33.4367L265.802 35.5379C260.303 36.3935 256.456 42.1406 257.21 48.3757C257.224 48.4901 257.258 48.6004 257.309 48.7001C257.36 48.7999 257.429 48.8871 257.51 48.957C257.591 49.0268 257.683 49.0778 257.782 49.1071C257.881 49.1363 257.983 49.1433 258.084 49.1276L263.429 48.2965L261.586 56.0802C219.01 43.7588 174.99 39.0968 131.137 42.2646C128.66 42.4452 126.206 42.9055 123.81 43.6385C121.413 44.3751 119.088 45.3846 116.871 46.6515L83.2098 65.8457C80.1927 67.564 76.9831 68.808 73.6695 69.5433L42.6545 76.3965C37.7429 77.4838 33.3767 80.6397 30.4345 85.2291L25.3087 93.2293C23.9159 93.8493 22.7201 94.9306 21.8772 96.3321C21.0342 97.7337 20.5833 99.3907 20.583 101.087V107.213C20.5828 108.921 21.0277 110.59 21.8618 112.012C22.6959 113.434 23.8819 114.545 25.271 115.205V115.205ZM258.35 84.5567L259.784 80.3675C259.87 80.1184 260.003 79.8935 260.173 79.7084C260.343 79.5234 260.547 79.3825 260.77 79.2957L267.034 76.8586C267.246 76.7762 267.471 76.7446 267.694 76.7656C267.917 76.7866 268.134 76.8598 268.331 76.9806C268.529 77.1014 268.701 77.2672 268.839 77.4675C268.977 77.6678 269.077 77.8983 269.132 78.1444L270.555 84.4895C270.811 85.6323 270.066 86.7455 269.028 86.7794L259.903 87.0607C258.746 87.0988 257.928 85.7833 258.35 84.5567V84.5567ZM246.367 108.112C246.369 110.602 245.808 113.052 244.736 115.226C242.527 119.73 238.288 122.781 233.425 122.781C228.566 122.781 224.326 119.73 222.113 115.226C221.043 113.051 220.482 110.602 220.486 108.112C220.486 100.019 226.29 93.4392 233.424 93.4392C240.563 93.4392 246.367 100.019 246.367 108.112ZM204.233 51.9375L218.21 54.1982C221.654 54.752 224.78 56.7805 226.946 59.8667C227.569 60.7531 226.971 62.0558 225.975 61.9801L213.803 61.1064C211.812 60.9637 209.874 60.3272 208.124 59.2417C206.374 58.1563 204.856 56.6485 203.677 54.8248L203.143 54.0014C202.539 53.0676 203.225 51.7733 204.233 51.9375ZM197.658 83.094L193.363 96.0316C192.661 98.1489 191.558 100.066 190.131 101.646C188.704 103.227 186.988 104.433 185.105 105.179L184.252 105.515C183.289 105.898 182.399 104.776 182.829 103.73L188.822 89.2334C190.298 85.6635 192.922 82.8686 196.157 81.4219C197.087 81.0059 198.01 82.0354 197.658 83.094V83.094ZM87.3305 75.2537L87.3712 75.2283L121.032 56.0341C124.363 54.1288 128.001 53.0108 131.725 52.7481C140.408 52.1213 149.106 51.8073 157.807 51.8067C164.793 51.8067 171.772 52.0128 178.744 52.416C181.466 52.5739 184.064 53.7552 186.127 55.7734C191.931 61.4627 197.81 68.3036 197.235 72.2195C196.16 79.5183 97.7262 80.5562 90.866 80.6192C90.6173 80.6222 90.3705 80.5694 90.1398 80.4639L87.4862 79.2661C85.9257 78.5646 85.8332 76.1067 87.3305 75.2537V75.2537ZM60.5333 93.4392C67.6681 93.4392 73.4725 100.019 73.4725 108.112C73.4746 110.602 72.913 113.052 71.8415 115.226C69.6324 119.73 65.3922 122.781 60.5333 122.781C55.6706 122.781 51.4304 119.73 49.218 115.226C48.1476 113.051 47.5873 110.602 47.5907 108.112C47.5907 100.019 53.3947 93.4392 60.5333 93.4392V93.4392ZM32.8504 92.4224L38.1766 84.8927C38.2724 84.7587 38.408 84.669 38.558 84.6405L50.3149 82.3671C50.9561 82.2414 51.3117 83.174 50.7967 83.6191L42.3462 90.9009C42.2818 90.9587 42.2072 91.0002 42.1275 91.0228L33.4878 93.5437C32.9135 93.7125 32.476 92.948 32.8504 92.4224Z" fill="#7E83C2"/>
</g>
<g filter="url(#filter1_d_2_23)">
<mask id="path-2-outside-1_2_23" maskUnits="userSpaceOnUse" x="98.6823" y="-25.6609" width="175.825" height="190.945" fill="black">
<rect fill="white" x="98.6823" y="-25.6609" width="175.825" height="190.945"/>
<path d="M174.669 131.904C181.923 131.988 189.109 130.63 195.816 127.906C202.522 125.182 208.619 121.146 213.757 116.028C218.895 110.911 222.974 104.812 225.761 98.0802C228.548 91.3483 229.988 84.1151 230 76.7937C230.012 69.4723 228.595 62.2059 225.83 55.4095C223.065 48.6132 219.006 42.4199 213.885 37.1832C208.764 31.9466 202.681 27.7692 195.984 24.8895C189.286 22.0099 182.105 20.4844 174.851 20.4001L174.837 28.9437C180.98 29.0151 187.06 30.3068 192.731 32.7452C198.403 35.1835 203.553 38.7208 207.89 43.1549C212.226 47.5891 215.663 52.8333 218.004 58.5882C220.345 64.3431 221.545 70.4959 221.535 76.6954C221.525 82.8948 220.305 89.0196 217.945 94.7198C215.585 100.42 212.131 105.584 207.781 109.918C203.43 114.251 198.268 117.668 192.589 119.975C186.91 122.281 180.826 123.432 174.683 123.36L174.669 131.904Z"/>
</mask>
<path d="M174.669 131.904C181.923 131.988 189.109 130.63 195.816 127.906C202.522 125.182 208.619 121.146 213.757 116.028C218.895 110.911 222.974 104.812 225.761 98.0802C228.548 91.3483 229.988 84.1151 230 76.7937C230.012 69.4723 228.595 62.2059 225.83 55.4095C223.065 48.6132 219.006 42.4199 213.885 37.1832C208.764 31.9466 202.681 27.7692 195.984 24.8895C189.286 22.0099 182.105 20.4844 174.851 20.4001L174.837 28.9437C180.98 29.0151 187.06 30.3068 192.731 32.7452C198.403 35.1835 203.553 38.7208 207.89 43.1549C212.226 47.5891 215.663 52.8333 218.004 58.5882C220.345 64.3431 221.545 70.4959 221.535 76.6954C221.525 82.8948 220.305 89.0196 217.945 94.7198C215.585 100.42 212.131 105.584 207.781 109.918C203.43 114.251 198.268 117.668 192.589 119.975C186.91 122.281 180.826 123.432 174.683 123.36L174.669 131.904Z" stroke="#0E123E" stroke-width="40" shape-rendering="crispEdges" mask="url(#path-2-outside-1_2_23)"/>
</g>
<g filter="url(#filter2_d_2_23)">
<mask id="path-3-inside-2_2_23" fill="white">
<path d="M149 0H47V152H149V0Z"/>
</mask>
<path d="M149 0V-20H169V0H149ZM149 20H47V-20H149V20ZM129 152V0H169V152H129Z" fill="#0E123E" mask="url(#path-3-inside-2_2_23)"/>
</g>
<g filter="url(#filter3_d_2_23)">
<mask id="path-5-inside-3_2_23" fill="white">
<path d="M123 27H47V153H123V27Z"/>
</mask>
<path d="M123 27V7H143V27H123ZM123 47H47V7H123V47ZM103 153V27H143V153H103Z" fill="#0E123E" mask="url(#path-5-inside-3_2_23)"/>
</g>
<defs>
<filter id="filter0_i_2_23" x="20.583" y="33.4286" width="259.696" height="103.857" filterUnits="userSpaceOnUse" color-interpolation-filters="sRGB">
<feFlood flood-opacity="0" result="BackgroundImageFix"/>
<feBlend mode="normal" in="SourceGraphic" in2="BackgroundImageFix" result="shape"/>
<feColorMatrix in="SourceAlpha" type="matrix" values="0 0 0 0 0 0 0 0 0 0 0 0 0 0 0 0 0 0 127 0" result="hardAlpha"/>
<feOffset dy="4"/>
<feGaussianBlur stdDeviation="2"/>
<feComposite in2="hardAlpha" operator="arithmetic" k2="-1" k3="1"/>
<feColorMatrix type="matrix" values="0 0 0 0 0 0 0 0 0 0 0 0 0 0 0 0 0 0 0.5 0"/>
<feBlend mode="normal" in2="shape" result="effect1_innerShadow_2_23"/>
</filter>
<filter id="filter1_d_2_23" x="150.637" y="0.166809" width="103.364" height="159.741" filterUnits="userSpaceOnUse" color-interpolation-filters="sRGB">
<feFlood flood-opacity="0" result="BackgroundImageFix"/>
<feColorMatrix in="SourceAlpha" type="matrix" values="0 0 0 0 0 0 0 0 0 0 0 0 0 0 0 0 0 0 127 0" result="hardAlpha"/>
<feOffset dy="4"/>
<feGaussianBlur stdDeviation="2"/>
<feComposite in2="hardAlpha" operator="out"/>
<feColorMatrix type="matrix" values="0 0 0 0 0 0 0 0 0 0 0 0 0 0 0 0 0 0 0.25 0"/>
<feBlend mode="normal" in2="BackgroundImageFix" result="effect1_dropShadow_2_23"/>
<feBlend mode="normal" in="SourceGraphic" in2="effect1_dropShadow_2_23" result="shape"/>
</filter>
<filter id="filter2_d_2_23" x="43" y="0" width="110" height="160" filterUnits="userSpaceOnUse" color-interpolation-filters="sRGB">
<feFlood flood-opacity="0" result="BackgroundImageFix"/>
<feColorMatrix in="SourceAlpha" type="matrix" values="0 0 0 0 0 0 0 0 0 0 0 0 0 0 0 0 0 0 127 0" result="hardAlpha"/>
<feOffset dy="4"/>
<feGaussianBlur stdDeviation="2"/>
<feComposite in2="hardAlpha" operator="out"/>
<feColorMatrix type="matrix" values="0 0 0 0 0 0 0 0 0 0 0 0 0 0 0 0 0 0 0.25 0"/>
<feBlend mode="normal" in2="BackgroundImageFix" result="effect1_dropShadow_2_23"/>
<feBlend mode="normal" in="SourceGraphic" in2="effect1_dropShadow_2_23" result="shape"/>
</filter>
<filter id="filter3_d_2_23" x="43" y="27" width="84" height="134" filterUnits="userSpaceOnUse" color-interpolation-filters="sRGB">
<feFlood flood-opacity="0" result="BackgroundImageFix"/>
<feColorMatrix in="SourceAlpha" type="matrix" values="0 0 0 0 0 0 0 0 0 0 0 0 0 0 0 0 0 0 127 0" result="hardAlpha"/>
<feOffset dy="4"/>
<feGaussianBlur stdDeviation="2"/>
<feComposite in2="hardAlpha" operator="out"/>
<feColorMatrix type="matrix" values="0 0 0 0 0 0 0 0 0 0 0 0 0 0 0 0 0 0 0.25 0"/>
<feBlend mode="normal" in2="BackgroundImageFix" result="effect1_dropShadow_2_23"/>
<feBlend mode="normal" in="SourceGraphic" in2="effect1_dropShadow_2_23" result="shape"/>
</filter>
</defs>
</svg>
