<?xml version="1.0" ?><svg viewBox="0 0 32 32" xmlns="http://www.w3.org/2000/svg"><defs><style>.cls-1{fill:#010101;}</style></defs><title/><g id="Messenger"><path class="cls-1" d="M8,29.5a.94.94,0,0,1-.58-.19A1,1,0,0,1,7,28.5v-2a1,1,0,0,1,2,0v.61L12.22,26a1,1,0,0,1,.6,0,11,11,0,1,0-5.07-3.25,1,1,0,0,1-.09,1.41,1,1,0,0,1-1.41-.09A13,13,0,1,1,16,28.5,13.34,13.34,0,0,1,12.55,28L8.32,29.45A1.19,1.19,0,0,1,8,29.5Z"/><path class="cls-1" d="M9,20.06a1,1,0,0,1-.76-1.65l5.25-6.12a1,1,0,0,1,1.36-.15l3,2.25L22.55,12a1,1,0,0,1,1.21,1.55l-5.25,6.12a1,1,0,0,1-1.36.15l-3-2.25L9.45,20A1,1,0,0,1,9,20.06Zm5.25-4.62a1,1,0,0,1,.6.2L17.6,17.7,19,16.05l-.82.41a1,1,0,0,1-1.05-.1L14.4,14.3,13,16l.82-.41A1,1,0,0,1,14.25,15.44Z"/></g></svg>