<svg viewBox="0 0 64 64" xml:space="preserve" xmlns="http://www.w3.org/2000/svg"><path d="M52.602 15.108a2.628 2.628 0 0 0-3.716-3.716c-4.788-4.788-12.551-4.787-17.339.001L19.871 23.07c-1.026 1.026-2.155 1.418-4.423.706-1.385-.434-3.397-.318-4.423.708l-2.534 2.534.013.011c-2.217 2.469 1.017 9.554 7.388 16.633a8.16 8.16 0 0 1 1.292-3.063c-4.852-5.661-6.485-10.015-6.404-11.45l.053-.001c2.554 0 8.553 3.285 14.641 9.373.358.358.694.709 1.028 1.06a6.197 6.197 0 0 0-6.943 1.272 6.226 6.226 0 0 0-.99 1.302l-.002-.002c-.006.01-.009.021-.015.032a6.186 6.186 0 0 0-.635 1.611l-.023.093a6.24 6.24 0 0 0-.132.847l-.001.018a6.14 6.14 0 0 0-.008.825c.001.021-.002.041-.001.062l.004.004a6.191 6.191 0 0 0 1.803 4.006 6.201 6.201 0 0 0 4.398 1.822c.156 0 .313-.011.469-.022h.001c.296-.022.59-.067.881-.131l.025-.006a6.163 6.163 0 0 0 1.677-.647l.013-.007c.476-.27.927-.602 1.332-1.008a6.217 6.217 0 0 0 1.581-6.105c3.717 4.777 5 8.374 4.928 9.654l-.053.001c-1.15 0-3.001-.672-5.241-1.959a8.16 8.16 0 0 1-2.886 1.758c3.206 2.042 6.09 3.201 8.126 3.201.902 0 1.632-.234 2.158-.708l.008.013 2.534-2.534c1.025-1.025.757-2.973.708-4.423-.052-1.52-.319-3.396.707-4.422L52.603 32.45c4.787-4.79 4.788-12.554-.001-17.342z" fill="#0e123e" class="fill-000000"></path></svg>