<svg xmlns="http://www.w3.org/2000/svg" viewBox="0 0 512 512"><path d="M257.375 127c-4.879-.006-9.747.016-14.625.063-26.215.454-52.592 1.091-78.562 4.719-8.963 4.556-13.559 14.557-19.157 22.469-10.12 16.935-14.83 36.395-20.406 55.093-2.34 2.544-3.939 6.082-6.562 8.22-2.347-.568.17-5.86-.407-8.376 1.374-7.769-7.924-12.499-14.406-9.531-6.56 2.534-16.5 3.205-19.031 10.937-.066 8.769 8.979 15.333 17.437 14.25 3.894.636 5.543 5.487 7.938 8.157.203 14.162-3.015 28.358-2.219 42.625.41 9.026-.495 18.521 2.281 27.187.782.824 1.533 1.063 2.25.969-.156.517-.28 1.047-.28 1.594v73.5c0 3.206 2.918 6.125 6.124 6.125h24.5c3.207-.002 6.125-2.919 6.125-6.125v-25.344H363.47v25.344c0 3.206 2.918 6.122 6.125 6.125h24.5c3.206-.002 6.123-2.919 6.125-6.125v-73.5c0-.58-.105-1.142-.281-1.688 4.406.024 3.294-7.08 4-10.25.747-19.036.694-38.405-2.282-57.156.503-4.54 4.483-8.732 7.844-11.313 8.095.4 17.037-4.245 18.281-12.906-1.145-8.043-11.231-9.685-17.562-12-5.73-2.37-15.455-1.26-16.031 6.375-.608 3.478 1.637 8.892.094 11.188-3.558-1.488-4.976-6.11-7.375-9-4.885-17.084-9.318-34.783-17.688-50.657-5.771-9.231-11.594-19.374-20.5-25.937-15.438-3.253-31.684-2.49-47.437-4-14.62-.707-29.27-1.01-43.907-1.031zm-1.219 7.907c28.868 0 57.74.092 60 .312 1.895.185 4.344.714 5.5 1.157 2.291.876 3.167 1.803 8.313 8.656 5.116 6.813 6.709 8.542 12.656 13.844 10.174 9.069 11.234 10.554 14.156 19.875.926 2.953 3.676 11.617 6.125 19.28 2.45 7.664 4.403 14.367 4.344 14.876l-.094.937-24.718.22c-47.671.427-102.341.526-134.438.28-17.82-.136-39.294-.253-47.719-.28-13.504-.046-15.342-.134-15.53-.626-.118-.306 1.596-6.226 3.812-13.156 2.216-6.93 4.981-15.64 6.156-19.375 3.46-11.002 4.644-12.894 11.937-19.406 7.516-6.71 10.625-9.975 14.97-15.688 2.395-3.15 4.961-6.42 5.718-7.25 1.763-1.933 4.32-2.875 8.812-3.312 2.262-.22 31.133-.344 60-.344zM135.22 226.75c15.344 3.215 29.338 12.88 43.375 19.812 7.96 3.005 18.593 11.184 12.344 20.563-10.542 7.447-25.322 2.497-37.375 2.187-9.584-2.743-24.657-1.816-29.282-12.375-.6-9.972-2.898-28.598 10.938-30.187zm239.687.562c15.59-.561 18.573 25.416 8.75 33.688-15.51 10.001-35.762 9.017-53.625 9.156-8.583 1.35-16.944-9.123-8.218-15.25 15.506-12.336 33.942-22.305 53.093-27.594z" style="text-indent:0;text-align:start;line-height:normal;text-transform:none;block-progression:tb;marker:none;-inkscape-font-specification:Sans" font-size="medium" font-style="normal" font-variant="normal" font-weight="400" font-stretch="normal" text-decoration="none" letter-spacing="normal" word-spacing="normal" direction="ltr" writing-mode="lr-tb" text-anchor="start" baseline-shift="baseline" color="#000000" fill="#006666" fill-opacity="1" fill-rule="nonzero" stroke="none" stroke-width="12.25719261" visibility="visible" display="inline" overflow="visible" enable-background="accumulate" font-family="Sans" class="fill-222222"></path></svg>